<?xml version="1.0" encoding="UTF-8"?>
<svg version="1.1" xmlns="http://www.w3.org/2000/svg" width="1095" height="586">
<path d="M0 0 C0.81597656 -0.00128906 1.63195312 -0.00257812 2.47265625 -0.00390625 C6.34987102 0.88705436 8.89749817 2.96326835 11.07563782 6.31263733 C12.25142719 8.48002974 13.34305072 10.67347799 14.4140625 12.89453125 C14.82482025 13.72216476 15.235578 14.54979828 15.65878296 15.4025116 C16.97139516 18.05457184 18.26699649 20.71454779 19.5625 23.375 C20.40908111 25.08972394 21.25672915 26.80392155 22.10546875 28.51757812 C26.60335115 37.62479392 31.00098663 46.77829219 35.3671875 55.94921875 C40.90112661 67.56622958 46.65028666 79.0700507 52.4375 90.5625 C58.20350998 102.01284291 63.92880076 113.4741517 69.4296875 125.0546875 C73.12599013 132.83601572 76.9087113 140.56656035 80.7890625 148.2578125 C81.26651917 149.20485046 81.74397583 150.15188843 82.23590088 151.12762451 C84.17545581 154.97047718 86.11782681 158.81186474 88.06689453 162.64990234 C89.5212897 165.51654316 90.96820521 168.38685821 92.4140625 171.2578125 C92.85561676 172.12230011 93.29717102 172.98678772 93.75210571 173.87747192 C94.15698212 174.68377045 94.56185852 175.49006897 94.97900391 176.32080078 C95.33443268 177.02198029 95.68986145 177.72315979 96.05606079 178.44558716 C97.03469944 180.79593951 97.51423938 183.05731572 97.9375 185.5625 C99.06167831 185.7179277 100.18585663 185.87335541 101.34410095 186.03349304 C139.30900049 191.28945686 177.23910515 196.7775144 215.16497934 202.30662715 C221.76839257 203.26902725 228.37233009 204.22779361 234.97636753 205.18589956 C241.44575274 206.12464646 247.91475703 207.06598806 254.38347477 208.0093233 C258.20408086 208.56643418 262.024829 209.12251796 265.84597969 209.67588234 C269.40188925 210.19091315 272.95731176 210.70918473 276.51239204 211.22990799 C278.4195042 211.50843334 280.32709921 211.78364639 282.23471069 212.05873108 C299.81083048 214.64276978 299.81083048 214.64276978 304 218.0625 C306.37598945 221.48059008 306.80661941 224.83064514 306.50244141 228.93383789 C305.87227381 231.86599628 305.12567698 232.98620034 303.10546875 235.16015625 C302.47141113 235.8459375 301.83735352 236.53171875 301.18408203 237.23828125 C297.16422855 241.39705164 293.12062194 245.52692216 289.0222168 249.6081543 C287.50258332 251.1224258 285.98837483 252.6419743 284.47460938 254.16210938 C276.40083309 262.24075758 276.40083309 262.24075758 272.1328125 265.85546875 C268.21873176 269.2045788 264.6122636 272.82833007 260.98828125 276.484375 C260.36286942 277.11528549 259.73745758 277.74619598 259.09309387 278.39622498 C256.47993954 281.03716183 253.87042005 283.68162387 251.26538086 286.33056641 C249.34409325 288.28208615 247.41660521 290.22731123 245.48828125 292.171875 C244.61312614 293.06721954 244.61312614 293.06721954 243.72029114 293.98065186 C243.16588852 294.53843323 242.6114859 295.0962146 242.0402832 295.67089844 C241.56033401 296.15830505 241.08038483 296.64571167 240.58589172 297.14788818 C238.9375 298.5625 238.9375 298.5625 233.9375 301.5625 C228.6575 296.2825 223.3775 291.0025 217.9375 285.5625 C219.76913762 281.89922475 221.17236441 280.08130724 224.0078125 277.26171875 C224.8225 276.44896484 225.6371875 275.63621094 226.4765625 274.79882812 C227.32992187 273.95771484 228.18328125 273.11660156 229.0625 272.25 C229.89265625 271.42048828 230.7228125 270.59097656 231.578125 269.73632812 C235.15912233 266.18058862 238.75453089 262.70671443 242.58544922 259.42114258 C247.78236305 254.90390722 252.59375663 250.01450548 257.4375 245.125 C258.3553125 244.20267578 259.273125 243.28035156 260.21875 242.33007812 C262.46065055 240.07650101 264.700166 237.82060925 266.9375 235.5625 C259.35487159 234.41198002 251.771344 233.26747844 244.1875 232.125 C242.95150055 231.93863983 241.7155011 231.75227966 240.44204712 231.56027222 C220.73679366 228.59286134 201.02208784 225.69255599 181.30244827 222.82232857 C177.36891331 222.24968257 173.43546571 221.67644013 169.50204468 221.10301208 C166.85846215 220.71766352 164.21487577 220.33234135 161.57128906 219.94702148 C160.58625629 219.80343368 160.58625629 219.80343368 159.58132386 219.65694511 C152.26475101 218.59052052 144.94788661 217.52616735 137.63024902 216.46707153 C131.25143602 215.54377427 124.87326954 214.61612976 118.49553108 213.68544006 C116.10816217 213.33794451 113.72054452 212.99215311 111.33267021 212.64814758 C108.03061232 212.17225147 104.72946599 211.6904524 101.4284668 211.20727539 C100.4630962 211.06962548 99.4977256 210.93197557 98.50310135 210.79015446 C85.22171596 208.82838336 85.22171596 208.82838336 81.25244141 204.91577148 C78.69972117 201.47131017 76.77184102 197.75524884 74.8984375 193.91015625 C74.53624115 193.18283798 74.1740448 192.45551971 73.8008728 191.7061615 C72.63008372 189.34963981 71.47112132 186.98752457 70.3125 184.625 C69.49436559 182.97173268 68.675676 181.31873999 67.85644531 179.66601562 C63.31504302 170.4859437 58.85327257 161.27037331 54.48193359 152.00805664 C48.99229001 140.45075072 43.19343189 129.04491035 37.45584106 117.60943604 C31.8506646 106.43442865 26.28138578 95.25373571 20.94995117 83.94506836 C14.20185066 69.69453145 7.02100334 55.64840263 -0.0625 41.5625 C-8.28565807 56.9255554 -16.10258404 72.48682649 -23.88452148 88.07617188 C-25.64083529 91.59447646 -27.4007551 95.11096283 -29.16164684 98.62697792 C-35.87237496 112.02983352 -42.53562345 125.44832172 -48.96878052 138.98721313 C-54.08226715 149.73803367 -59.31665498 160.42886797 -64.60594273 171.09408569 C-66.16253808 174.2331054 -67.71321252 177.37477469 -69.2512207 180.52294922 C-71.06448245 184.23416022 -72.90050755 187.93367741 -74.73828125 191.6328125 C-75.28527176 192.75978546 -75.83226227 193.88675842 -76.39582825 195.04788208 C-81.6265256 205.48236697 -81.6265256 205.48236697 -87.0625 208.5625 C-90.885472 209.64535199 -94.7200522 210.17049472 -98.65625 210.67578125 C-99.85927261 210.84732727 -101.06229523 211.01887329 -102.30177307 211.19561768 C-104.96754039 211.57303111 -107.63317535 211.94284415 -110.30154419 212.30056763 C-114.63942339 212.88245949 -118.97304105 213.49261775 -123.30639648 214.10717773 C-128.17834326 214.79661705 -133.05061156 215.4834931 -137.92417908 216.16139221 C-159.56473124 219.17251721 -181.18412709 222.33008009 -202.80504036 225.47858715 C-210.34847056 226.57684254 -217.8925614 227.67039872 -225.43730259 228.75961113 C-230.19622087 229.44695597 -234.95482122 230.13648422 -239.71336174 230.8264389 C-241.95698675 231.15126376 -244.20074605 231.47516252 -246.44464302 231.79810333 C-249.53125837 232.24250693 -252.61736447 232.6902944 -255.70336914 233.13891602 C-256.61447197 233.26924382 -257.5255748 233.39957163 -258.4642868 233.53384876 C-259.2955584 233.65537658 -260.12682999 233.77690439 -260.98329163 233.90211487 C-261.70338441 234.00619439 -262.42347719 234.11027391 -263.16539097 234.21750736 C-265.27616314 234.55517151 -265.27616314 234.55517151 -268.0625 235.5625 C-267.06613813 236.58688455 -266.06510713 237.60672713 -265.0625 238.625 C-264.2271875 239.47771484 -264.2271875 239.47771484 -263.375 240.34765625 C-261.43265799 242.20797368 -259.45337954 243.95793209 -257.4140625 245.70874023 C-253.13369197 249.44574876 -249.11694235 253.39664959 -245.125 257.4375 C-244.03844116 258.52973877 -244.03844116 258.52973877 -242.92993164 259.64404297 C-239.86707576 262.72306951 -236.81027689 265.80808323 -233.75292969 268.89257812 C-231.50405883 271.15965458 -229.25209762 273.42362966 -227 275.6875 C-225.98401733 276.71593018 -225.98401733 276.71593018 -224.94750977 277.76513672 C-221.74425061 280.98456797 -218.50160294 284.09508612 -215.0625 287.0625 C-210.8854225 290.66667177 -207.00085424 294.51415998 -203.125 298.4375 C-202.03844116 299.52973877 -202.03844116 299.52973877 -200.92993164 300.64404297 C-197.86707576 303.72306951 -194.81027689 306.80808323 -191.75292969 309.89257812 C-189.50405883 312.15965458 -187.25209762 314.42362966 -185 316.6875 C-183.98401733 317.71593018 -183.98401733 317.71593018 -182.94750977 318.76513672 C-179.11176293 322.62024885 -175.16184247 326.25716457 -171.0451355 329.80917358 C-167.6681031 332.79562274 -164.49822779 335.98413452 -161.31640625 339.17578125 C-160.61982407 339.87140671 -159.92324188 340.56703217 -159.20555115 341.28373718 C-157.74982001 342.73879346 -156.2953282 344.19509063 -154.84204102 345.65258789 C-152.61002732 347.89000895 -150.37265865 350.12197677 -148.13476562 352.35351562 C-146.71582466 353.77311654 -145.29719346 355.19302717 -143.87890625 356.61328125 C-143.20920303 357.28096024 -142.53949982 357.94863922 -141.84950256 358.6365509 C-141.23473557 359.25447006 -140.61996857 359.87238922 -139.98657227 360.5090332 C-139.44444595 361.05195511 -138.90231964 361.59487701 -138.34376526 362.1542511 C-135.69710078 365.06322121 -135.81042614 367.76022714 -135.85934448 371.58610344 C-136.31787399 378.30394044 -137.65052549 384.93253561 -138.81640625 391.55688477 C-139.11261682 393.27236446 -139.40816183 394.98795919 -139.70309448 396.70365906 C-140.50211124 401.34052944 -141.31038432 405.97574293 -142.12037277 410.61070752 C-142.96660275 415.46243045 -143.80424995 420.31563469 -144.64282227 425.16868591 C-146.2304953 434.34926066 -147.82584375 443.52848409 -149.42397785 452.70724291 C-151.24369602 463.16087524 -153.05481645 473.6159913 -154.86522865 484.07123864 C-158.58811161 505.56998632 -162.32174731 527.06685493 -166.0625 548.5625 C-161.93073916 547.64006054 -158.41595679 545.82417791 -154.68359375 543.87890625 C-153.96402496 543.50799866 -153.24445618 543.13709106 -152.50308228 542.75494385 C-150.16654176 541.54912726 -147.8332089 540.33724881 -145.5 539.125 C-143.8867755 538.29034168 -142.27341243 537.45595117 -140.65991211 536.62182617 C-136.12416298 534.27500565 -131.59261828 531.92016779 -127.0625 529.5625 C-126.05477539 529.03849609 -125.04705078 528.51449219 -124.00878906 527.97460938 C-116.59705317 524.11390821 -109.22107639 520.18904985 -101.86328125 516.2265625 C-99.55487138 514.98403147 -97.24634616 513.74171969 -94.9375 512.5 C-94.35446106 512.18637512 -93.77142212 511.87275024 -93.17071533 511.54962158 C-81.07123331 505.04784435 -68.86513103 498.75977437 -56.64511108 492.48834229 C-55.96945099 492.14156433 -55.29379089 491.79478638 -54.59765625 491.4375 C-53.93480621 491.09732849 -53.27195618 490.75715698 -52.58901978 490.40667725 C-47.35553027 487.71851771 -42.14053729 484.99666288 -36.9375 482.25 C-36.224729 481.87657471 -35.51195801 481.50314941 -34.77758789 481.1184082 C-30.53320569 478.89007145 -26.32300522 476.60761317 -22.125 474.29296875 C-20.0625475 473.17439157 -18.00004809 472.0559009 -15.9375 470.9375 C-14.98858887 470.40342529 -14.03967773 469.86935059 -13.06201172 469.3190918 C-11.69713623 468.58493042 -11.69713623 468.58493042 -10.3046875 467.8359375 C-9.5091748 467.39685059 -8.71366211 466.95776367 -7.89404297 466.50537109 C-2.55517385 464.72758936 2.64182829 464.73546577 7.82299805 467.02441406 C9.12487331 467.69015531 10.41676803 468.37569296 11.69921875 469.078125 C12.4031929 469.44484314 13.10716705 469.81156128 13.83247375 470.18939209 C16.10635681 471.37963056 18.36536576 472.59546181 20.625 473.8125 C22.21210239 474.64993308 23.80000087 475.48585904 25.38867188 476.3203125 C34.4541874 481.09775942 43.46494608 485.97980734 52.43041992 490.94238281 C61.00536421 495.66572582 69.72179475 500.10651975 78.4375 504.5625 C88.88989386 509.90645178 99.28309426 515.31801246 109.55444336 521.00463867 C119.32203673 526.38167798 129.25549641 531.43863315 139.18212891 536.51391602 C147.48980737 540.76449071 155.74159329 545.09957336 163.9375 549.5625 C163.37544021 540.75045783 161.93301258 532.12799228 160.39365768 523.44684029 C159.95222237 520.95470474 159.51710716 518.46153695 159.08364868 515.96800232 C157.85179079 508.88733581 156.60972401 501.80848142 155.36132812 494.73071289 C154.59464887 490.38150262 153.83591905 486.03096584 153.08205032 481.67951775 C152.79408747 480.02715961 152.50301118 478.37534091 152.20875168 476.72409248 C151.79888002 474.42349218 151.39907637 472.12134954 151.00146484 469.81860352 C150.87788101 469.13960999 150.75429718 468.46061646 150.62696838 467.76104736 C150.0615188 464.42304321 149.75866985 461.78061169 150.9375 458.5625 C153.64476366 458.0560186 156.35307124 457.557149 159.0625 457.0625 C159.82304687 456.91941406 160.58359375 456.77632813 161.3671875 456.62890625 C162.11484375 456.49355469 162.8625 456.35820312 163.6328125 456.21875 C164.31359863 456.09306641 164.99438477 455.96738281 165.69580078 455.83789062 C168.45560404 455.49885141 171.15989785 455.52078382 173.9375 455.5625 C176.65194518 470.55408343 179.30952716 485.55552631 181.9375 500.5625 C182.12412579 501.62779308 182.12412579 501.62779308 182.31452179 502.71460724 C183.97673959 512.20672093 185.62675926 521.7008482 187.25584221 531.19870853 C187.94516328 535.21716626 188.6379986 539.23493885 189.33972168 543.25125122 C190.00967528 547.08719339 190.66914612 550.9247984 191.32097435 554.7638607 C191.56509913 556.19119998 191.81285835 557.6179231 192.06450844 559.04395485 C192.411787 561.01569066 192.74440889 562.98999082 193.07641602 564.96435547 C193.2676857 566.07438934 193.45895538 567.18442322 193.65602112 568.32809448 C194.07218963 573.11018589 193.70732724 577.11907392 191.4375 581.375 C187.82270664 584.53794419 184.70704655 585.42690713 179.9375 585.5625 C172.98634189 583.6214549 166.62298057 579.90270595 160.375 576.375 C150.82681595 571.07194126 141.16006733 566.03494558 131.4375 561.0625 C122.24936109 556.35961531 113.09367131 551.62515083 104.0625 546.625 C93.86346307 540.97995165 83.49514848 535.682043 73.11724854 530.37625122 C63.49424972 525.45380627 53.94085871 520.44279582 44.48535156 515.20385742 C29.50891336 506.9611111 14.22737978 499.20743989 -1.0625 491.5625 C-3.36334645 492.46325131 -3.36334645 492.46325131 -5.953125 493.88671875 C-6.96020508 494.41410645 -7.96728516 494.94149414 -9.00488281 495.48486328 C-10.09639648 496.0673584 -11.18791016 496.64985352 -12.3125 497.25 C-13.4478418 497.84796387 -14.58318359 498.44592773 -15.75292969 499.06201172 C-23.51400654 503.16361405 -31.21188664 507.37501226 -38.89868164 511.61352539 C-48.09261308 516.64576211 -57.42044724 521.41329603 -66.75 526.1875 C-67.56463715 526.60441101 -68.37927429 527.02132202 -69.21859741 527.4508667 C-72.40303869 529.08035187 -75.5875619 530.70967678 -78.77223206 532.3387146 C-89.30530609 537.72960765 -99.76782293 543.24538102 -110.18359375 548.859375 C-125.06361034 556.87309921 -140.02011257 564.710741 -155.07226562 572.39648438 C-155.78116943 572.7589325 -156.49007324 573.12138062 -157.22045898 573.49481201 C-158.60115707 574.20072105 -159.9823308 574.90570064 -161.36401367 575.60968018 C-166.22607403 578.09836383 -170.99260913 580.7293491 -175.70922852 583.4855957 C-179.77301747 585.34526715 -183.72519915 585.48632942 -188.0625 584.5625 C-191.68732057 582.44802133 -193.54803202 580.43678437 -195.0625 576.5625 C-195.40356385 566.11424831 -192.80583741 555.34950161 -190.99560547 545.09179688 C-190.67801985 543.26559826 -190.36099883 541.43930139 -190.04449463 539.61291504 C-189.36637639 535.70613956 -188.68458986 531.80002913 -187.99993515 527.89439392 C-186.91757505 521.71831465 -185.84521691 515.54052408 -184.77444458 509.36242676 C-182.1155919 494.0301734 -179.44539758 478.69989834 -176.76953125 463.37060547 C-174.68516673 451.42969301 -172.60463423 439.48814477 -170.53679574 427.54435778 C-169.47288537 421.40183679 -168.40063084 415.26084928 -167.32210135 409.12087917 C-166.65433866 405.30853165 -165.99408881 401.49491163 -165.33594513 397.68089294 C-165.02910255 395.91183806 -164.71914074 394.14332097 -164.40584946 392.37539673 C-163.97900335 389.96414914 -163.56332011 387.55123178 -163.15036011 385.13757324 C-163.02361904 384.43728862 -162.89687797 383.737004 -162.76629627 383.01549864 C-162.13739795 379.26126397 -161.9450074 376.22464931 -163.0625 372.5625 C-164.37546046 370.73108 -164.37546046 370.73108 -166.125 369.1875 C-166.67285156 368.66414063 -167.22070312 368.14078125 -167.78515625 367.6015625 C-169.09839251 366.42573175 -170.41830409 365.25708719 -171.75584412 364.10897827 C-176.7206013 359.83358859 -181.39671469 355.34718336 -186 350.6875 C-187.08655884 349.59526123 -187.08655884 349.59526123 -188.19506836 348.48095703 C-191.25792424 345.40193049 -194.31472311 342.31691677 -197.37207031 339.23242188 C-199.62094117 336.96534542 -201.87290238 334.70137034 -204.125 332.4375 C-205.14098267 331.40906982 -205.14098267 331.40906982 -206.17749023 330.35986328 C-209.38074939 327.14043203 -212.62339706 324.02991388 -216.0625 321.0625 C-220.2395775 317.45832823 -224.12414576 313.61084002 -228 309.6875 C-229.08655884 308.59526123 -229.08655884 308.59526123 -230.19506836 307.48095703 C-233.25792424 304.40193049 -236.31472311 301.31691677 -239.37207031 298.23242188 C-241.62094117 295.96534542 -243.87290238 293.70137034 -246.125 291.4375 C-247.14098267 290.40906982 -247.14098267 290.40906982 -248.17749023 289.35986328 C-251.38074939 286.14043203 -254.62339706 283.02991388 -258.0625 280.0625 C-262.2395775 276.45832823 -266.12414576 272.61084002 -270 268.6875 C-271.08655884 267.59526123 -271.08655884 267.59526123 -272.19506836 266.48095703 C-275.25792424 263.40193049 -278.31472311 260.31691677 -281.37207031 257.23242188 C-283.62094117 254.96534542 -285.87290238 252.70137034 -288.125 250.4375 C-288.80232178 249.75187988 -289.47964355 249.06625977 -290.17749023 248.35986328 C-294.10949017 244.40801209 -298.14987409 240.66185766 -302.39624023 237.04882812 C-306.06847705 233.77313908 -307.24065236 230.94466847 -307.5625 226.125 C-307.44133833 222.82059069 -306.94587118 220.76827562 -304.9375 218.125 C-300.03638942 213.75661883 -294.33037984 213.14730808 -287.99617004 212.25900269 C-287.20095103 212.14295437 -286.40573202 212.02690605 -285.58641547 211.90734112 C-282.93179873 211.52132765 -280.2761152 211.14324113 -277.62036133 210.76513672 C-275.71297001 210.48945403 -273.80564846 210.21328824 -271.89839172 209.93667603 C-266.72587695 209.18795384 -261.55239137 208.44614984 -256.37868714 207.70569754 C-250.96633197 206.93001417 -245.55483812 206.14836656 -240.14323425 205.36746216 C-231.05899644 204.05747881 -221.97416132 202.75170721 -212.88891602 201.44873047 C-202.37722682 199.9411537 -191.86631201 198.42827498 -181.35583669 196.91225994 C-170.17240185 195.29918935 -158.98850241 193.68936025 -147.80441451 192.08082438 C-144.57765594 191.61655798 -141.35097543 191.15175209 -138.12430763 190.68685532 C-133.06114644 189.95756507 -127.99767175 189.23049094 -122.93394279 188.50515366 C-121.07258874 188.23820133 -119.21133785 187.97052859 -117.35019684 187.70209503 C-114.8163681 187.33677397 -112.28218056 186.97405447 -109.74787903 186.61203003 C-109.0058663 186.50444772 -108.26385357 186.3968654 -107.49935561 186.28602302 C-104.65532529 185.8820938 -101.93970205 185.5625 -99.0625 185.5625 C-98.84464844 184.79808594 -98.62679687 184.03367188 -98.40234375 183.24609375 C-96.55126858 178.15698622 -94.08585628 173.44326255 -91.625 168.625 C-88.16404025 161.8309135 -84.78687275 155.0081691 -81.51792908 148.11997986 C-76.51616454 137.58148098 -71.38219865 127.11607301 -66.15625 116.6875 C-65.80891752 115.99428083 -65.46158504 115.30106167 -65.10372734 114.58683586 C-62.23075179 108.85485922 -59.35254061 103.12551505 -56.47418213 97.39624023 C-47.93026917 80.38805324 -39.46104383 63.35929999 -31.30059814 46.16271973 C-28.06718049 39.37198475 -24.77423844 32.61070878 -21.44458008 25.86669922 C-20.63368393 24.2177279 -19.82853218 22.56592173 -19.02856445 20.91162109 C-17.8384587 18.45246552 -16.63030323 16.00294562 -15.41796875 13.5546875 C-15.06784225 12.82144257 -14.71771576 12.08819763 -14.35697937 11.33273315 C-11.34263056 5.32765571 -7.38112285 -0.19885751 0 0 Z " fill="#E21E26" transform="translate(307.0625,0.4375)"/>
<path d="M0 0 C0.86315323 -0.00016617 1.72630646 -0.00033234 2.61561584 -0.00050354 C4.08876503 -0.01457497 4.08876503 -0.01457497 5.5916748 -0.02893066 C6.65410904 -0.01769669 7.71654327 -0.00646271 8.81117249 0.00511169 C9.91046585 0.00365646 11.00975922 0.00220123 12.1423645 0.0007019 C14.47510926 0.00236391 16.80786463 0.01395865 19.14051819 0.03465271 C22.67640556 0.06334096 26.21076829 0.05531993 29.74671936 0.04222107 C32.01821092 0.04846702 34.28969777 0.05686461 36.56117249 0.06761169 C37.60538864 0.06467606 38.6496048 0.06174042 39.72546387 0.05871582 C53.45568383 0.23106798 66.69123358 3.89811664 76.90492249 13.43089294 C90.26905732 28.15644692 92.69557068 47.04851155 91.92298889 66.14231873 C91.06565632 80.67485788 86.42248949 96.80696434 75.18226624 106.82542419 C61.61576065 116.30430188 47.48015783 118.64678814 31.23304749 118.66917419 C29.94029655 118.67416679 29.94029655 118.67416679 28.62142944 118.67926025 C26.81904121 118.6842781 25.01664386 118.68667019 23.21424866 118.68650818 C20.46059641 118.68871404 17.70733329 118.70697645 14.95375061 118.72581482 C13.19268426 118.72874601 11.43161603 118.73073264 9.67054749 118.73167419 C8.85277328 118.73885971 8.03499908 118.74604523 7.19244385 118.75344849 C2.98021248 118.73657802 -0.43364755 118.59422337 -4.21617126 116.50120544 C-5.3936598 114.14622838 -5.34689925 112.73754375 -5.35661316 110.11158752 C-5.3623233 109.18906189 -5.36803345 108.26653625 -5.37391663 107.3160553 C-5.37503448 106.30094879 -5.37615234 105.28584229 -5.37730408 104.23997498 C-5.38226898 103.17321533 -5.38723389 102.10645569 -5.39234924 101.00737 C-5.40699577 97.46624617 -5.4137768 93.92516713 -5.41929626 90.38401794 C-5.42504538 87.93023171 -5.43080314 85.4764455 -5.43656921 83.0226593 C-5.44708611 77.87276499 -5.45292436 72.72288633 -5.45640564 67.57298279 C-5.46189372 60.966153 -5.48592575 54.35952895 -5.51437759 47.75276375 C-5.53297792 42.68278901 -5.53820817 37.6128641 -5.53974152 32.54285812 C-5.54277414 30.10674285 -5.55082306 27.67062858 -5.5639267 25.23454666 C-5.58093349 21.82994567 -5.57911995 18.42585092 -5.57261658 15.02122498 C-5.58183136 14.01016693 -5.59104614 12.99910889 -5.60054016 11.95741272 C-5.59497101 11.02924744 -5.58940186 10.10108215 -5.58366394 9.14479065 C-5.5851305 8.33989763 -5.58659706 7.53500462 -5.58810806 6.7057209 C-4.99414977 3.18525656 -3.55598993 0.80421651 0 0 Z M21.78382874 23.50120544 C21.78382874 47.26120544 21.78382874 71.02120544 21.78382874 95.50120544 C40.80239044 96.52796805 40.80239044 96.52796805 56.31898499 88.23558044 C64.33232806 78.74778224 65.21733986 65.49707735 64.57289124 53.61058044 C63.56898901 44.25345401 61.39523633 36.99106354 55.47132874 29.62620544 C43.98577867 20.54460772 38.29994649 23.50120544 21.78382874 23.50120544 Z " fill="#3C3C3B" transform="translate(554.2161712646484,315.49879455566406)"/>
<path d="M0 0 C0.91880951 -0.00945648 1.83761902 -0.01891296 2.78427124 -0.02865601 C3.77794708 -0.02258331 4.77162292 -0.01651062 5.79541016 -0.01025391 C6.82574371 -0.01312408 7.85607727 -0.01599426 8.91763306 -0.01895142 C11.104925 -0.02099529 13.29223508 -0.01544297 15.47949219 -0.00292969 C18.78705231 0.01295584 22.09335969 -0.0026825 25.40087891 -0.02197266 C55.83000018 -0.05294722 55.83000018 -0.05294722 66.42822266 10.31396484 C72.98142198 17.44459772 74.83170554 24.41560363 74.67041016 34.02880859 C73.99509211 41.58236602 70.74631096 47.99967532 65.45947266 53.38818359 C62.57408427 55.59937175 59.59365567 57.54946289 56.45947266 59.38818359 C57.16072266 60.00693359 57.86197266 60.62568359 58.58447266 61.26318359 C66.3840491 69.20963959 69.95957745 80.05257729 73.83862305 90.2487793 C74.77806158 92.71667917 75.73187195 95.17865614 76.68798828 97.64013672 C77.29624884 99.21858983 77.90370014 100.79735508 78.51025391 102.37646484 C78.93362785 103.47188347 78.93362785 103.47188347 79.36555481 104.58943176 C80.72024465 108.16296459 81.86259584 111.60796377 82.45947266 115.38818359 C77.87896153 118.87897635 73.97759247 118.84380547 68.45947266 118.76318359 C67.66541016 118.77478516 66.87134766 118.78638672 66.05322266 118.79833984 C65.27978516 118.79447266 64.50634766 118.79060547 63.70947266 118.78662109 C63.01337891 118.7832373 62.31728516 118.77985352 61.60009766 118.77636719 C58.55690906 118.22451159 56.89527489 117.32439633 54.45947266 115.38818359 C53.10061059 112.84210907 52.03154876 110.50836125 51.01416016 107.83349609 C50.71760529 107.09493378 50.42105042 106.35637146 50.11550903 105.59542847 C49.17303937 103.24048176 48.25296697 100.87757195 47.33447266 98.51318359 C46.40474778 96.15778418 45.4704192 93.80431581 44.53201294 91.45236206 C43.95057435 89.99112423 43.3748137 88.52761016 42.80563354 87.06155396 C40.11555487 79.97559986 40.11555487 79.97559986 35.02197266 74.63818359 C31.56800011 73.4262634 28.86314738 73.07486167 25.23681641 72.81005859 C24.1552124 72.72852539 23.0736084 72.64699219 21.95922852 72.56298828 C21.13430908 72.50530273 20.30938965 72.44761719 19.45947266 72.38818359 C19.47518311 73.64477783 19.49089355 74.90137207 19.50708008 76.19604492 C19.56133449 80.85320641 19.59580642 85.51033991 19.62426758 90.16772461 C19.63936445 92.18437394 19.6598438 94.20099039 19.68579102 96.2175293 C19.72213477 99.1143403 19.73918985 102.01071765 19.75244141 104.90771484 C19.76792526 105.81092972 19.78340912 106.71414459 19.79936218 107.64472961 C19.79958878 108.4853746 19.79981537 109.32601959 19.80004883 110.19213867 C19.80671066 110.93160233 19.8133725 111.67106598 19.82023621 112.43293762 C19.35218907 114.96963312 18.4719445 115.81773053 16.45947266 117.38818359 C12.8606526 118.58779028 9.87809283 118.55705088 6.08447266 118.57568359 C4.77736328 118.58986328 3.47025391 118.60404297 2.12353516 118.61865234 C-1.46849743 118.39271426 -4.88437262 118.04433832 -7.54052734 115.38818359 C-7.64262206 113.94035018 -7.67571112 112.48758239 -7.68096924 111.03616333 C-7.68667938 110.09673889 -7.69238953 109.15731445 -7.69827271 108.18942261 C-7.69939056 107.1504483 -7.70050842 106.111474 -7.70166016 105.04101562 C-7.70662506 103.95328857 -7.71158997 102.86556152 -7.71670532 101.74487305 C-7.73137042 98.12857441 -7.73813606 94.51231964 -7.74365234 90.89599609 C-7.74940008 88.39354449 -7.75515785 85.89109291 -7.76092529 83.38864136 C-7.77010075 78.80694338 -7.77639612 74.22525807 -7.77942204 69.64355195 C-7.78390331 62.89468335 -7.8014516 56.14601725 -7.83042264 49.39721024 C-7.85462307 43.55755337 -7.86236537 37.71796423 -7.8640976 31.87826157 C-7.86713288 29.39108045 -7.87519063 26.90390037 -7.88828278 24.41675186 C-7.90526623 20.94239051 -7.90348176 17.46852621 -7.89697266 13.99414062 C-7.90618744 12.95921478 -7.91540222 11.92428894 -7.92489624 10.85800171 C-7.91932709 9.91293762 -7.91375793 8.96787354 -7.90802002 7.99417114 C-7.90948658 7.17230883 -7.91095314 6.35044651 -7.91246414 5.50367928 C-7.10659824 0.92008917 -4.25756074 0.0125946 0 0 Z M19.45947266 23.38818359 C19.45947266 31.96818359 19.45947266 40.54818359 19.45947266 49.38818359 C22.12009766 49.47068359 24.78072266 49.55318359 27.52197266 49.63818359 C28.34576416 49.67459961 29.16955566 49.71101563 30.01831055 49.74853516 C35.65659755 49.83225538 38.81766564 48.59718793 43.45947266 45.38818359 C46.9085237 41.60535341 46.96872333 37.68420521 46.81494141 32.76318359 C46.30320788 29.34412884 45.01602775 27.66067701 42.45947266 25.38818359 C39.49230631 23.60960072 37.35601206 23.14633847 33.91259766 23.19287109 C32.77032715 23.20036377 32.77032715 23.20036377 31.60498047 23.20800781 C30.64946289 23.22621582 29.69394531 23.24442383 28.70947266 23.26318359 C25.65697266 23.30443359 22.60447266 23.34568359 19.45947266 23.38818359 Z " fill="#3C3C3B" transform="translate(941.54052734375,315.61181640625)"/>
<path d="M0 0 C0.91880951 -0.00945648 1.83761902 -0.01891296 2.78427124 -0.02865601 C3.77794708 -0.02258331 4.77162292 -0.01651062 5.79541016 -0.01025391 C6.82574371 -0.01312408 7.85607727 -0.01599426 8.91763306 -0.01895142 C11.104925 -0.02099529 13.29223508 -0.01544297 15.47949219 -0.00292969 C18.78705231 0.01295584 22.09335969 -0.0026825 25.40087891 -0.02197266 C55.83000018 -0.05294722 55.83000018 -0.05294722 66.42822266 10.31396484 C72.98142198 17.44459772 74.83170554 24.41560363 74.67041016 34.02880859 C73.99509211 41.58236602 70.74631096 47.99967532 65.45947266 53.38818359 C62.57408427 55.59937175 59.59365567 57.54946289 56.45947266 59.38818359 C57.16072266 60.00693359 57.86197266 60.62568359 58.58447266 61.26318359 C66.3840491 69.20963959 69.95957745 80.05257729 73.83862305 90.2487793 C74.77806158 92.71667917 75.73187195 95.17865614 76.68798828 97.64013672 C77.29624884 99.21858983 77.90370014 100.79735508 78.51025391 102.37646484 C78.93362785 103.47188347 78.93362785 103.47188347 79.36555481 104.58943176 C80.72024465 108.16296459 81.86259584 111.60796377 82.45947266 115.38818359 C77.87896153 118.87897635 73.97759247 118.84380547 68.45947266 118.76318359 C67.66541016 118.77478516 66.87134766 118.78638672 66.05322266 118.79833984 C65.27978516 118.79447266 64.50634766 118.79060547 63.70947266 118.78662109 C63.01337891 118.7832373 62.31728516 118.77985352 61.60009766 118.77636719 C58.55690906 118.22451159 56.89527489 117.32439633 54.45947266 115.38818359 C53.10061059 112.84210907 52.03154876 110.50836125 51.01416016 107.83349609 C50.71760529 107.09493378 50.42105042 106.35637146 50.11550903 105.59542847 C49.17303937 103.24048176 48.25296697 100.87757195 47.33447266 98.51318359 C46.40474778 96.15778418 45.4704192 93.80431581 44.53201294 91.45236206 C43.95057435 89.99112423 43.3748137 88.52761016 42.80563354 87.06155396 C40.11555487 79.97559986 40.11555487 79.97559986 35.02197266 74.63818359 C31.56800011 73.4262634 28.86314738 73.07486167 25.23681641 72.81005859 C24.1552124 72.72852539 23.0736084 72.64699219 21.95922852 72.56298828 C21.13430908 72.50530273 20.30938965 72.44761719 19.45947266 72.38818359 C19.47518311 73.64477783 19.49089355 74.90137207 19.50708008 76.19604492 C19.56133449 80.85320641 19.59580642 85.51033991 19.62426758 90.16772461 C19.63936445 92.18437394 19.6598438 94.20099039 19.68579102 96.2175293 C19.72213477 99.1143403 19.73918985 102.01071765 19.75244141 104.90771484 C19.76792526 105.81092972 19.78340912 106.71414459 19.79936218 107.64472961 C19.79958878 108.4853746 19.79981537 109.32601959 19.80004883 110.19213867 C19.80671066 110.93160233 19.8133725 111.67106598 19.82023621 112.43293762 C19.35218907 114.96963312 18.4719445 115.81773053 16.45947266 117.38818359 C12.8606526 118.58779028 9.87809283 118.55705088 6.08447266 118.57568359 C4.77736328 118.58986328 3.47025391 118.60404297 2.12353516 118.61865234 C-1.46849743 118.39271426 -4.88437262 118.04433832 -7.54052734 115.38818359 C-7.64262206 113.94035018 -7.67571112 112.48758239 -7.68096924 111.03616333 C-7.68667938 110.09673889 -7.69238953 109.15731445 -7.69827271 108.18942261 C-7.69939056 107.1504483 -7.70050842 106.111474 -7.70166016 105.04101562 C-7.70662506 103.95328857 -7.71158997 102.86556152 -7.71670532 101.74487305 C-7.73137042 98.12857441 -7.73813606 94.51231964 -7.74365234 90.89599609 C-7.74940008 88.39354449 -7.75515785 85.89109291 -7.76092529 83.38864136 C-7.77010075 78.80694338 -7.77639612 74.22525807 -7.77942204 69.64355195 C-7.78390331 62.89468335 -7.8014516 56.14601725 -7.83042264 49.39721024 C-7.85462307 43.55755337 -7.86236537 37.71796423 -7.8640976 31.87826157 C-7.86713288 29.39108045 -7.87519063 26.90390037 -7.88828278 24.41675186 C-7.90526623 20.94239051 -7.90348176 17.46852621 -7.89697266 13.99414062 C-7.90618744 12.95921478 -7.91540222 11.92428894 -7.92489624 10.85800171 C-7.91932709 9.91293762 -7.91375793 8.96787354 -7.90802002 7.99417114 C-7.90948658 7.17230883 -7.91095314 6.35044651 -7.91246414 5.50367928 C-7.10659824 0.92008917 -4.25756074 0.0125946 0 0 Z M19.45947266 23.38818359 C19.45947266 31.96818359 19.45947266 40.54818359 19.45947266 49.38818359 C22.12009766 49.47068359 24.78072266 49.55318359 27.52197266 49.63818359 C28.34576416 49.67459961 29.16955566 49.71101563 30.01831055 49.74853516 C35.65659755 49.83225538 38.81766564 48.59718793 43.45947266 45.38818359 C46.9085237 41.60535341 46.96872333 37.68420521 46.81494141 32.76318359 C46.30320788 29.34412884 45.01602775 27.66067701 42.45947266 25.38818359 C39.49230631 23.60960072 37.35601206 23.14633847 33.91259766 23.19287109 C32.77032715 23.20036377 32.77032715 23.20036377 31.60498047 23.20800781 C30.64946289 23.22621582 29.69394531 23.24442383 28.70947266 23.26318359 C25.65697266 23.30443359 22.60447266 23.34568359 19.45947266 23.38818359 Z " fill="#3C3C3B" transform="translate(362.54052734375,315.61181640625)"/>
<path d="M0 0 C1.58748047 -0.02416992 1.58748047 -0.02416992 3.20703125 -0.04882812 C4.22152344 -0.04947266 5.23601563 -0.05011719 6.28125 -0.05078125 C7.21001953 -0.05376221 8.13878906 -0.05674316 9.09570312 -0.05981445 C12.02736669 0.39416472 12.63296704 1.06163251 14.5 3.3125 C15.44317627 5.39599609 15.44317627 5.39599609 16.25488281 7.8359375 C16.56714813 8.75955078 16.87941345 9.68316406 17.20114136 10.63476562 C17.53179596 11.64216797 17.86245056 12.64957031 18.203125 13.6875 C18.55803009 14.74388672 18.91293518 15.80027344 19.27859497 16.88867188 C20.44357633 20.36070876 21.59660772 23.83659805 22.75 27.3125 C24.36854312 32.14712857 25.99312315 36.97972383 27.6171875 41.8125 C28.02591095 43.03163086 28.4346344 44.25076172 28.85574341 45.50683594 C33.06247581 58.03656241 37.41928741 70.51240978 41.8145752 82.97705078 C43.73180352 88.41470919 45.63642447 93.85619209 47.5 99.3125 C47.72627075 99.97443359 47.9525415 100.63636719 48.18566895 101.31835938 C48.7958806 103.12448461 49.38685841 104.93707537 49.9765625 106.75 C50.46116943 108.23306641 50.46116943 108.23306641 50.95556641 109.74609375 C51.52692593 112.43942617 51.60503924 113.80324059 50.5 116.3125 C47.45871195 118.34002537 46.83136438 118.56729962 43.41015625 118.578125 C42.23356445 118.58199219 42.23356445 118.58199219 41.03320312 118.5859375 C40.21787109 118.57820313 39.40253906 118.57046875 38.5625 118.5625 C37.75103516 118.57023437 36.93957031 118.57796875 36.10351562 118.5859375 C35.31783203 118.58335937 34.53214844 118.58078125 33.72265625 118.578125 C33.00859619 118.57586914 32.29453613 118.57361328 31.55883789 118.57128906 C29.07717103 118.25935181 27.57241038 117.72445393 25.5 116.3125 C24.40332031 114.28125 24.40332031 114.28125 23.578125 111.8125 C23.12373047 110.4821875 23.12373047 110.4821875 22.66015625 109.125 C22.35980469 108.196875 22.05945313 107.26875 21.75 106.3125 C21.43417969 105.384375 21.11835937 104.45625 20.79296875 103.5 C18.5 96.67072511 18.5 96.67072511 18.5 94.3125 C5.96 94.6425 -6.58 94.9725 -19.5 95.3125 C-21.63833853 101.75455287 -21.63833853 101.75455287 -23.74707031 108.20629883 C-24.02131836 109.01091553 -24.29556641 109.81553223 -24.578125 110.64453125 C-24.85043945 111.46671143 -25.12275391 112.2888916 -25.40332031 113.13598633 C-26.72926466 115.76750766 -27.95946076 116.84285809 -30.5 118.3125 C-33.42056568 118.57983524 -36.08909707 118.68677638 -39 118.625 C-40.13888672 118.62983398 -40.13888672 118.62983398 -41.30078125 118.63476562 C-45.15885498 118.59760379 -48.2347287 118.49224228 -51.5 116.3125 C-51.84150761 110.45891431 -50.69675501 106.00841927 -48.74609375 100.515625 C-48.45380386 99.66538757 -48.16151398 98.81515015 -47.86036682 97.93914795 C-46.89631964 95.14326759 -45.91706054 92.35297893 -44.9375 89.5625 C-44.25885399 87.6044824 -43.58113361 85.64614375 -42.90429688 83.6875 C-41.13630722 78.58007809 -39.35520893 73.47733098 -37.57049561 68.37573242 C-35.84389025 63.43503629 -34.12771308 58.49072216 -32.41015625 53.546875 C-26.78358495 37.36480615 -26.78358495 37.36480615 -24.08265686 29.69866943 C-22.56032599 25.3732643 -21.0682773 21.03997062 -19.61328125 16.69140625 C-19.30140869 15.77061279 -18.98953613 14.84981934 -18.66821289 13.90112305 C-18.0691428 12.13067263 -17.47809593 10.35748114 -16.89624023 8.58129883 C-16.62626221 7.78876709 -16.35628418 6.99623535 -16.078125 6.1796875 C-15.84512695 5.47956543 -15.61212891 4.77944336 -15.37207031 4.05810547 C-12.55426197 -1.58224437 -5.2985396 -0.01613441 0 0 Z M-0.5 35.3125 C-3.38553143 42.70842523 -5.77857594 50.25059809 -8.1875 57.8125 C-8.60723978 59.12505824 -9.02716023 60.43755873 -9.44726562 61.75 C-10.46661576 64.93693376 -11.48355001 68.12464007 -12.5 71.3125 C-4.91 71.3125 2.68 71.3125 10.5 71.3125 C9.30045798 65.91456091 8.12942653 60.78494018 6.5546875 55.52734375 C6.20019531 54.33818359 5.84570312 53.14902344 5.48046875 51.92382812 C5.11566406 50.71146484 4.75085938 49.49910156 4.375 48.25 C4.00246094 47.00283203 3.62992188 45.75566406 3.24609375 44.47070312 C2.33352827 41.41711862 1.4180976 38.36442485 0.5 35.3125 C0.17 35.3125 -0.16 35.3125 -0.5 35.3125 Z " fill="#3C3C3B" transform="translate(872.5,315.6875)"/>
<path d="M0 0 C1.739683 0.00427505 1.739683 0.00427505 3.51451111 0.00863647 C4.82919876 0.00248322 6.14388641 -0.00367004 7.49841309 -0.01000977 C8.93469441 0.00378517 10.37096879 0.01831907 11.80723572 0.03353882 C13.27789143 0.03592309 14.74855021 0.0368286 16.21920776 0.03631592 C19.30025824 0.03944381 22.38084332 0.05600903 25.46177673 0.08285522 C29.415398 0.11686531 33.36850853 0.124483 37.32225895 0.12296486 C40.35826513 0.12350807 43.39415917 0.13446675 46.4301281 0.14896774 C47.88820484 0.1553412 49.34629431 0.15927592 50.80438423 0.16075516 C52.83931661 0.16508048 54.87420168 0.18415236 56.90904236 0.20394897 C58.64753197 0.21538437 58.64753197 0.21538437 60.42114258 0.22705078 C63.14707947 0.49447632 63.14707947 0.49447632 65.14707947 2.49447632 C65.59068019 5.45299741 65.47120599 8.44396083 65.45957947 11.43197632 C65.47569275 12.25633179 65.49180603 13.08068726 65.50840759 13.93002319 C65.50905212 14.72344116 65.50969666 15.51685913 65.51036072 16.33432007 C65.51334167 17.05998169 65.51632263 17.78564331 65.51939392 18.53329468 C65.03288184 21.09601702 64.16115803 21.86913496 62.14707947 23.49447632 C60.22979736 23.85523987 60.22979736 23.85523987 58.04283142 23.83505249 C56.81189507 23.8347126 56.81189507 23.8347126 55.55609131 23.83436584 C54.23407967 23.81114006 54.23407967 23.81114006 52.88536072 23.78744507 C51.52667122 23.7810778 51.52667122 23.7810778 50.14053345 23.77458191 C47.24658014 23.7577848 44.3533224 23.72013082 41.45957947 23.68197632 C39.49800098 23.66693081 37.53641158 23.65324217 35.57481384 23.64096069 C30.76508528 23.6104292 25.95686122 23.55171039 21.14707947 23.49447632 C21.14707947 31.08447632 21.14707947 38.67447632 21.14707947 46.49447632 C23.78321228 46.44807007 26.41934509 46.40166382 29.13536072 46.35385132 C31.68701756 46.32266117 34.23865322 46.29837039 36.79039001 46.27474976 C38.56457516 46.25462729 40.33869393 46.22732602 42.11265564 46.19271851 C44.66205713 46.14422639 47.21058242 46.12151479 49.76036072 46.10385132 C50.5542067 46.08320618 51.34805267 46.06256104 52.16595459 46.04129028 C57.64283752 46.03905584 57.64283752 46.03905584 60.14414978 48.29818726 C61.63468143 51.5622629 61.58106572 54.42451168 61.58457947 57.99447632 C61.60391541 59.30416382 61.62325134 60.61385132 61.64317322 61.96322632 C61.14707947 65.49447632 61.14707947 65.49447632 59.63267517 67.69076538 C56.15605652 70.21362744 53.00880702 69.9962236 48.88145447 69.88510132 C48.08805664 69.87944153 47.29465881 69.87378174 46.47721863 69.86795044 C43.94988473 69.84560778 41.42398281 69.79541807 38.89707947 69.74447632 C37.18095415 69.72440846 35.46480655 69.70615819 33.74864197 69.68978882 C29.54712934 69.64915523 25.3487018 69.57086945 21.14707947 69.49447632 C21.14707947 78.07447632 21.14707947 86.65447632 21.14707947 95.49447632 C24.15575134 95.47127319 27.16442322 95.44807007 30.26426697 95.42416382 C33.17002439 95.40857774 36.07577721 95.39642705 38.98155212 95.38461304 C41.00501074 95.37453961 43.02845475 95.36088037 45.05186462 95.34359741 C47.95603536 95.31940785 50.86001407 95.30800683 53.76426697 95.29916382 C54.67264313 95.28884125 55.58101929 95.27851868 56.516922 95.2678833 C57.35764252 95.26773224 58.19836304 95.26758118 59.06455994 95.26742554 C59.8062442 95.26298431 60.54792847 95.25854309 61.31208801 95.25396729 C63.14707947 95.49447632 63.14707947 95.49447632 65.14707947 97.49447632 C67.12124057 104.20662407 66.64657214 111.04841628 64.14707947 117.49447632 C60.94965894 118.56028316 58.64704198 118.62767623 55.28623962 118.63973999 C54.08133881 118.64611984 52.87643799 118.65249969 51.63502502 118.65907288 C50.33189362 118.6601857 49.02876221 118.66129852 47.68614197 118.66244507 C46.33477239 118.66565913 44.98340315 118.66902332 43.6320343 118.67253113 C40.79915053 118.67851814 37.96629725 118.68037149 35.13340759 118.67977905 C31.50970314 118.67967751 27.88619497 118.69332319 24.262537 118.71055126 C21.47093311 118.72169008 18.67937637 118.72369768 15.88775253 118.72316933 C13.90416259 118.72491816 11.92058735 118.73574785 9.93702698 118.74671936 C8.72582184 118.74364273 7.5146167 118.7405661 6.26670837 118.73739624 C5.2032016 118.73882126 4.13969482 118.74024628 3.04396057 118.74171448 C0.01400663 118.48311904 -2.14893326 117.87103617 -4.85292053 116.49447632 C-6.03040906 114.13949926 -5.98364852 112.73081462 -5.99336243 110.1048584 C-5.99907257 109.18233276 -6.00478271 108.25980713 -6.01066589 107.30932617 C-6.01178375 106.29421967 -6.01290161 105.27911316 -6.01405334 104.23324585 C-6.01901825 103.16648621 -6.02398315 102.09972656 -6.02909851 101.00064087 C-6.04374504 97.45951704 -6.05052607 93.918438 -6.05604553 90.37728882 C-6.06179465 87.92350258 -6.06755241 85.46971637 -6.07331848 83.01593018 C-6.08383537 77.86603587 -6.08967363 72.7161572 -6.09315491 67.56625366 C-6.09864298 60.95942387 -6.12267502 54.35279983 -6.15112686 47.74603462 C-6.16972719 42.67605989 -6.17495744 37.60613498 -6.17649078 32.536129 C-6.17952341 30.10001373 -6.18757233 27.66389945 -6.20067596 25.22781754 C-6.21768275 21.82321654 -6.21586921 18.41912179 -6.20936584 15.01449585 C-6.21858063 14.00343781 -6.22779541 12.99237976 -6.23728943 11.95068359 C-6.23172028 11.02251831 -6.22615112 10.09435303 -6.22041321 9.13806152 C-6.22187977 8.33316851 -6.22334633 7.52827549 -6.22485733 6.69899178 C-5.54794964 2.68687608 -4.0058718 0.69430912 0 0 Z " fill="#3C3C3B" transform="translate(463.85292053222656,315.5055236816406)"/>
<path d="M0 0 C1.45212891 -0.01740234 1.45212891 -0.01740234 2.93359375 -0.03515625 C13.05500611 0.00560112 22.17385346 2.04885346 29.5 9.375 C30.51336295 15.45517768 28.34474635 19.1289481 25.30078125 24.3359375 C23.5 26.375 23.5 26.375 21.03125 27.25390625 C18.34957852 27.38219609 17.09586189 27.04112816 14.6875 25.9375 C10.2336267 24.30766778 5.95167483 24.0336406 1.25 24 C0.56446045 23.98654541 -0.1210791 23.97309082 -0.82739258 23.95922852 C-5.21243259 23.99721971 -8.01675389 24.69054341 -11.5 27.375 C-12.95147903 30.27795805 -12.87239025 32.14761779 -12.5 35.375 C-7.71823539 43.28584559 1.241003 45.75685723 9.35546875 49.34375 C20.09581617 54.2570139 28.94832406 60.0567701 33.5 71.375 C36.39186279 82.38632372 35.20711553 94.62275386 29.75 104.5625 C29.0075 105.490625 28.265 106.41875 27.5 107.375 C27.04109375 107.94992187 26.5821875 108.52484375 26.109375 109.1171875 C20.02017577 116.00448566 11.50221482 119.24828601 2.5 120.375 C-12.30573335 121.28504508 -27.89859725 119.92222011 -40.5 111.375 C-43.20847113 108.46310293 -43.49360823 107.75850608 -43.5625 103.625 C-42.72087584 98.68623846 -40.11740183 94.7843212 -36.5 91.375 C-34.23828125 89.97265625 -34.23828125 89.97265625 -31.5 89.375 C-28.94286848 90.18636934 -26.8163546 91.01951519 -24.4375 92.1875 C-16.02922607 96.1302628 -8.15966006 98.29524181 1 95.1875 C3.90233457 93.08330744 5.20449592 91.72806939 6.5 88.375 C6.5 84.37151027 6.29058692 82.24209533 3.5625 79.25 C-0.66232951 76.66336969 -5.03804933 74.52125475 -9.5 72.375 C-12.23427771 71.05191728 -14.96180506 69.71566048 -17.6875 68.375 C-18.68487183 67.89498535 -18.68487183 67.89498535 -19.70239258 67.40527344 C-26.01078896 64.29926384 -31.96949885 61.01052435 -35.8125 54.9375 C-36.28300781 54.21691406 -36.75351562 53.49632812 -37.23828125 52.75390625 C-42.02024578 43.7377564 -41.96416741 31.96771054 -39.77734375 22.12109375 C-36.33956343 13.00471273 -30.22013324 7.44439551 -21.5 3.375 C-14.2920193 0.60408055 -7.68063254 -0.09204486 0 0 Z " fill="#3C3C3B" transform="translate(699.5,314.625)"/>
<path d="M0 0 C2.73401284 -0.31280576 5.24398294 -0.43017155 7.98217773 -0.41992188 C9.21896774 -0.43262619 9.21896774 -0.43262619 10.48074341 -0.44558716 C13.21518236 -0.46904865 15.94906163 -0.46997715 18.68359375 -0.46875 C20.57927173 -0.47584623 22.47494754 -0.48354443 24.37062073 -0.49182129 C28.3478085 -0.50528725 32.32479772 -0.50682548 36.30200195 -0.50097656 C41.40483262 -0.49507945 46.50671217 -0.52566246 51.60935879 -0.56609344 C55.52554987 -0.59191363 59.44151026 -0.59485303 63.35777473 -0.59120178 C65.23930311 -0.59289847 67.12084152 -0.6025935 69.00228691 -0.62034607 C71.63165208 -0.64242366 74.25907059 -0.63289225 76.88842773 -0.61523438 C78.05975502 -0.63512924 78.05975502 -0.63512924 79.25474548 -0.65542603 C81.42576599 -0.62145996 81.42576599 -0.62145996 85 0 C88.15606966 3.72026981 88.38473128 6.76745441 88.3125 11.5625 C88.30863281 12.67753906 88.30476562 13.79257812 88.30078125 14.94140625 C88.01267209 17.87113967 87.61769043 19.57060625 86 22 C83.18175808 23.40912096 80.82748718 23.11183553 77.6796875 23.09765625 C76.42285156 23.09443359 75.16601562 23.09121094 73.87109375 23.08789062 C72.55238281 23.07951172 71.23367188 23.07113281 69.875 23.0625 C68.53515789 23.05748489 67.195314 23.05292201 65.85546875 23.04882812 C62.57026794 23.03701086 59.28515603 23.02053617 56 23 C56.01665459 24.71888176 56.01665459 24.71888176 56.03364563 26.4724884 C56.13489298 37.25840028 56.20990357 48.04421607 56.25906086 58.83049488 C56.28518266 64.37621132 56.32062825 69.92154494 56.37719727 75.46704102 C56.43142429 80.81627362 56.46140106 86.16513745 56.47438622 91.51462364 C56.48364281 93.55806983 56.50171843 95.60149526 56.52865028 97.64478493 C56.56481682 100.50167477 56.56995055 103.35703034 56.56762695 106.21411133 C56.58560333 107.06359344 56.60357971 107.91307556 56.62210083 108.78829956 C56.60127258 111.14656067 56.60127258 111.14656067 56 115 C52.05575664 118.47931471 48.05086447 118.42898673 43 118.3125 C41.95199219 118.31733398 41.95199219 118.31733398 40.8828125 118.32226562 C36.84889303 118.2804042 33.57766754 117.91757559 30 116 C28.35226099 112.70452197 28.87104275 109.04092836 28.88647461 105.41943359 C28.88632858 104.53156662 28.88618256 103.64369965 28.8860321 102.72892761 C28.88673045 99.78540631 28.89451919 96.84194779 28.90234375 93.8984375 C28.90420821 91.86105382 28.90563198 89.82366969 28.90663147 87.7862854 C28.91045445 82.41702034 28.92028289 77.04778223 28.93133545 71.67852783 C28.94155426 66.2023556 28.9461301 60.72617902 28.95117188 55.25 C28.96190533 44.49998815 28.97897915 33.74999631 29 23 C27.75126099 23.0314209 27.75126099 23.0314209 26.47729492 23.06347656 C23.38553966 23.13168816 20.29416803 23.18181724 17.2019043 23.21972656 C15.20660986 23.24971281 13.21166418 23.30053786 11.21679688 23.3515625 C9.33637695 23.37089844 9.33637695 23.37089844 7.41796875 23.390625 C6.26063232 23.41157227 5.1032959 23.43251953 3.91088867 23.45410156 C1 23 1 23 -0.87841797 21.2121582 C-2.57013841 17.87548451 -2.394643 14.58793487 -2.3125 10.9375 C-2.31572266 10.21755859 -2.31894531 9.49761719 -2.32226562 8.75585938 C-2.28374156 4.98400291 -2.13773952 3.20660928 0 0 Z " fill="#3C3C3B" transform="translate(739,316)"/>
</svg>
